<mxfile host="app.diagrams.net" agent="Mozilla/5.0 (X11; Linux x86_64; rv:137.0) Gecko/20100101 Firefox/137.0" version="25.0.3">
  <diagram name="Page-1" id="Srr-PB7GzdfBu_JWQ3YN">
    <mxGraphModel dx="1108" dy="1383" grid="0" gridSize="10" guides="1" tooltips="1" connect="1" arrows="1" fold="1" page="0" pageScale="1" pageWidth="850" pageHeight="1100" math="0" shadow="0">
      <root>
        <mxCell id="0" />
        <mxCell id="1" parent="0" />
        <mxCell id="hF1h-VePGLgBySQFq1k3-8" style="edgeStyle=none;curved=1;rounded=0;orthogonalLoop=1;jettySize=auto;html=1;fontSize=12;startSize=8;endSize=8;" edge="1" parent="1" source="hF1h-VePGLgBySQFq1k3-1" target="hF1h-VePGLgBySQFq1k3-6">
          <mxGeometry relative="1" as="geometry" />
        </mxCell>
        <mxCell id="hF1h-VePGLgBySQFq1k3-1" value="Internetové bankovnictví" style="rounded=0;whiteSpace=wrap;html=1;" vertex="1" parent="1">
          <mxGeometry x="-64" y="197" width="120" height="60" as="geometry" />
        </mxCell>
        <mxCell id="hF1h-VePGLgBySQFq1k3-9" style="edgeStyle=none;curved=1;rounded=0;orthogonalLoop=1;jettySize=auto;html=1;fontSize=12;startSize=8;endSize=8;" edge="1" parent="1" source="hF1h-VePGLgBySQFq1k3-2" target="hF1h-VePGLgBySQFq1k3-6">
          <mxGeometry relative="1" as="geometry" />
        </mxCell>
        <mxCell id="hF1h-VePGLgBySQFq1k3-2" value="Mobilní bankovnictví" style="rounded=0;whiteSpace=wrap;html=1;" vertex="1" parent="1">
          <mxGeometry x="121" y="197" width="120" height="60" as="geometry" />
        </mxCell>
        <mxCell id="hF1h-VePGLgBySQFq1k3-3" value="Pobočkový systém" style="rounded=0;whiteSpace=wrap;html=1;" vertex="1" parent="1">
          <mxGeometry x="306" y="197" width="120" height="60" as="geometry" />
        </mxCell>
        <mxCell id="hF1h-VePGLgBySQFq1k3-11" style="edgeStyle=none;curved=1;rounded=0;orthogonalLoop=1;jettySize=auto;html=1;fontSize=12;startSize=8;endSize=8;" edge="1" parent="1" source="hF1h-VePGLgBySQFq1k3-4" target="hF1h-VePGLgBySQFq1k3-6">
          <mxGeometry relative="1" as="geometry" />
        </mxCell>
        <mxCell id="hF1h-VePGLgBySQFq1k3-4" value="Bankomat" style="rounded=0;whiteSpace=wrap;html=1;" vertex="1" parent="1">
          <mxGeometry x="491" y="197" width="120" height="60" as="geometry" />
        </mxCell>
        <mxCell id="hF1h-VePGLgBySQFq1k3-15" style="edgeStyle=none;curved=1;rounded=0;orthogonalLoop=1;jettySize=auto;html=1;fontSize=12;startSize=8;endSize=8;" edge="1" parent="1" source="hF1h-VePGLgBySQFq1k3-5" target="hF1h-VePGLgBySQFq1k3-14">
          <mxGeometry relative="1" as="geometry" />
        </mxCell>
        <mxCell id="hF1h-VePGLgBySQFq1k3-5" value="CBS" style="rounded=0;whiteSpace=wrap;html=1;" vertex="1" parent="1">
          <mxGeometry x="234.5" y="-64" width="120" height="60" as="geometry" />
        </mxCell>
        <mxCell id="hF1h-VePGLgBySQFq1k3-12" value="" style="edgeStyle=none;curved=1;rounded=0;orthogonalLoop=1;jettySize=auto;html=1;fontSize=12;startSize=8;endSize=8;" edge="1" parent="1" source="hF1h-VePGLgBySQFq1k3-6" target="hF1h-VePGLgBySQFq1k3-3">
          <mxGeometry relative="1" as="geometry" />
        </mxCell>
        <mxCell id="hF1h-VePGLgBySQFq1k3-13" style="edgeStyle=none;curved=1;rounded=0;orthogonalLoop=1;jettySize=auto;html=1;fontSize=12;startSize=8;endSize=8;" edge="1" parent="1" source="hF1h-VePGLgBySQFq1k3-6" target="hF1h-VePGLgBySQFq1k3-5">
          <mxGeometry relative="1" as="geometry" />
        </mxCell>
        <mxCell id="hF1h-VePGLgBySQFq1k3-6" value="ESB" style="rounded=0;whiteSpace=wrap;html=1;" vertex="1" parent="1">
          <mxGeometry x="-35" y="66" width="659" height="29" as="geometry" />
        </mxCell>
        <mxCell id="hF1h-VePGLgBySQFq1k3-10" style="edgeStyle=none;curved=1;rounded=0;orthogonalLoop=1;jettySize=auto;html=1;fontSize=12;startSize=8;endSize=8;" edge="1" parent="1" source="hF1h-VePGLgBySQFq1k3-3" target="hF1h-VePGLgBySQFq1k3-6">
          <mxGeometry relative="1" as="geometry" />
        </mxCell>
        <mxCell id="hF1h-VePGLgBySQFq1k3-14" value="Transakční systém" style="rounded=0;whiteSpace=wrap;html=1;" vertex="1" parent="1">
          <mxGeometry x="234.5" y="-223" width="120" height="60" as="geometry" />
        </mxCell>
      </root>
    </mxGraphModel>
  </diagram>
</mxfile>
